<?xml version="1.0" ?><svg id="E-learning_audio" viewBox="0 0 512 512" xmlns="http://www.w3.org/2000/svg"><path d="M243.0771,299.7515V251.3271a12.5756,12.5756,0,0,0-12.5615-12.5615H212.44a5,5,0,0,0,0,10h18.0752a2.5646,2.5646,0,0,1,2.5615,2.5615v48.4244a2.5645,2.5645,0,0,1-2.5615,2.5615H102.126a2.5645,2.5645,0,0,1-2.5615-2.5615V251.3271a2.5646,2.5646,0,0,1,2.5615-2.5615h83.8193a5,5,0,1,0,0-10H102.126a12.5756,12.5756,0,0,0-12.5615,12.5615v48.4244A12.5756,12.5756,0,0,0,102.126,312.313h128.39A12.5756,12.5756,0,0,0,243.0771,299.7515Z"/><path d="M305.13,238.7656H270.8574a10.4457,10.4457,0,0,0-10.4336,10.4336v52.68a10.4458,10.4458,0,0,0,10.4336,10.4341H305.13a10.446,10.446,0,0,0,10.4346-10.4341v-52.68A10.4459,10.4459,0,0,0,305.13,238.7656Zm.4346,63.1133a.4352.4352,0,0,1-.4346.4341H270.8574a.4343.4343,0,0,1-.4336-.4341v-52.68a.4339.4339,0,0,1,.4336-.4336H305.13a.4348.4348,0,0,1,.4346.4336Z"/><path d="M309.1992,360.7461H215.2568a5,5,0,1,0,0,10h93.9424a5,5,0,0,0,0-10Z"/><path d="M309.1992,335.2017H215.2568a5,5,0,1,0,0,10h93.9424a5,5,0,0,0,0-10Z"/><path d="M467.8184,122.0205a109.7112,109.7112,0,0,0-219.3941-2.4939H145.1484V119.15a12.48,12.48,0,0,0-12.4658-12.4658H102.03A12.48,12.48,0,0,0,89.5645,119.15v1.0747a54.0289,54.0289,0,0,0-45.3824,53.262V459.8289l0,.0168a39.83,39.83,0,0,0,39.8467,39.8467H355.6045a5.0406,5.0406,0,0,0,5-5.0474V459.8457a5,5,0,0,0-10,0v29.0818a29.8444,29.8444,0,0,1,5.24-58.887,4.9515,4.9515,0,0,0,3.5979-1.8479c.0279-.0337.053-.0686.08-.1028a5.0467,5.0467,0,0,0,.3811-.5549c.0508-.0859.092-.1767.1377-.2656a4.9905,4.9905,0,0,0,.2314-.5c.0518-.1358.0855-.2788.1255-.42.0406-.1457.09-.2873.1172-.4377a5.0239,5.0239,0,0,0,.064-.6553c.0044-.0867.0249-.1689.0249-.2566l-.0022-.0224V231.7017A109.84,109.84,0,0,0,467.8184,122.0205ZM358.1055,22.3076a99.7129,99.7129,0,1,1-99.7129,99.7129A99.8261,99.8261,0,0,1,358.1055,22.3076ZM99.5645,119.15a2.4686,2.4686,0,0,1,2.4658-2.4658h30.6523a2.4686,2.4686,0,0,1,2.4658,2.4658l-.0019,61.2065-6.9883-9.3046a12.7468,12.7468,0,0,0-10.0557-5.1226c-.0693-.0015-.1386-.002-.2089-.002a12.7429,12.7429,0,0,0-10.003,4.8038l-8.3261,10.38ZM317.4756,459.8457a39.6352,39.6352,0,0,0,11.6631,28.1777l.0039.0035q.8613.8621,1.7695,1.6655H84.0283A29.8521,29.8521,0,0,1,55.084,467.1733H238.0771a5,5,0,1,0,0-10H54.3076A29.8831,29.8831,0,0,1,84.0283,430H330.8867A39.77,39.77,0,0,0,317.4756,459.8457ZM84.0283,420a39.7531,39.7531,0,0,0-29.8437,13.4849l-.0025-.0178v-259.98a44.0331,44.0331,0,0,1,35.3824-43.1123v51.17a9.7377,9.7377,0,0,0,6.583,9.2915,10.006,10.006,0,0,0,3.3232.5733,9.7319,9.7319,0,0,0,7.625-3.7036l8.5957-10.7188a2.827,2.827,0,0,1,2.2529-1.0591,2.7824,2.7824,0,0,1,2.2178,1.13l7.2637,9.67a9.8481,9.8481,0,0,0,17.7226-5.914V129.5266H248.6545A109.8719,109.8719,0,0,0,350.6023,231.4717V419.9766l.0139.0229Z"/><path d="M359.04,64.3209a11.5163,11.5163,0,0,0-12.582,2.0966L318.7676,91.89a5.2425,5.2425,0,0,1-3.56,1.3887H300.03a12.8472,12.8472,0,0,0-12.833,12.832V146.81a12.8475,12.8475,0,0,0,12.833,12.833h15.6006a5.2851,5.2851,0,0,1,3.2705,1.14L347.1,183.1792a11.6621,11.6621,0,0,0,18.916-9.1328V75.0005A11.5169,11.5169,0,0,0,359.04,64.3209Zm-3.0244,109.7255a1.6626,1.6626,0,0,1-2.6963,1.3028l-28.2-22.3975a15.3176,15.3176,0,0,0-9.4882-3.3086H300.03a2.8357,2.8357,0,0,1-2.833-2.833V106.1109a2.8355,2.8355,0,0,1,2.833-2.832H314.209V119.523a5,5,0,0,0,10,0V100.3292a15.4275,15.4275,0,0,0,1.3291-1.08l27.6894-25.4727a1.6625,1.6625,0,0,1,2.7881,1.2236Z"/><path d="M412.2979,122.02A26.204,26.204,0,0,0,386.123,95.8462a5,5,0,0,0,0,10,16.1744,16.1744,0,1,1,0,32.3487,5,5,0,0,0,0,10A26.2048,26.2048,0,0,0,412.2979,122.02Z"/><path d="M389.3262,76.5152a5,5,0,0,0,0,10,35.5054,35.5054,0,0,1,0,71.0107,5,5,0,0,0,0,10,45.5054,45.5054,0,0,0,0-91.0107Z"/></svg>