<?xml version="1.0" encoding="utf-8"?>
<!-- Generator: Adobe Illustrator 21.1.0, SVG Export Plug-In . SVG Version: 6.00 Build 0)  -->
<svg version="1.1" id="E-learning_audio" xmlns="http://www.w3.org/2000/svg" xmlns:xlink="http://www.w3.org/1999/xlink" x="0px"
	 y="0px" viewBox="0 0 373 373" style="enable-background:new 0 0 373 373;" xml:space="preserve">
<g>
	<path d="M176.6,220v-37.1c0-5.3-4.3-9.6-9.6-9.6h-13.8c-2.1,0-3.8,1.7-3.8,3.8c0,2.1,1.7,3.8,3.8,3.8H167c1.1,0,2,0.9,2,2V220
		c0,1.1-0.9,2-2,2H68.7c-1.1,0-2-0.9-2-2v-37.1c0-1.1,0.9-2,2-2h64.1c2.1,0,3.8-1.7,3.8-3.8c0-2.1-1.7-3.8-3.8-3.8H68.7
		c-5.3,0-9.6,4.3-9.6,9.6V220c0,5.3,4.3,9.6,9.6,9.6H167C172.3,229.6,176.6,225.3,176.6,220z"/>
	<path d="M224.1,173.3h-26.2c-4.4,0-8,3.6-8,8v40.3c0,4.4,3.6,8,8,8h26.2c4.4,0,8-3.6,8-8v-40.3
		C232.1,176.9,228.5,173.3,224.1,173.3z M224.4,221.6c0,0.2-0.1,0.3-0.3,0.3h-26.2c-0.2,0-0.3-0.1-0.3-0.3v-40.3
		c0-0.2,0.1-0.3,0.3-0.3h26.2c0.2,0,0.3,0.1,0.3,0.3V221.6z"/>
	<path d="M227.2,266.7h-71.9c-2.1,0-3.8,1.7-3.8,3.8c0,2.1,1.7,3.8,3.8,3.8h71.9c2.1,0,3.8-1.7,3.8-3.8
		C231,268.4,229.3,266.7,227.2,266.7L227.2,266.7z"/>
	<path d="M227.2,247.1h-71.9c-2.1,0-3.8,1.7-3.8,3.8s1.7,3.8,3.8,3.8h71.9c2.1,0,3.8-1.7,3.8-3.8S229.3,247.1,227.2,247.1
		L227.2,247.1z"/>
	<path d="M348.6,84c0-46.4-37.6-84-84-84c-45.6,0-82.9,36.4-83.9,82.1h-79v-0.3c0-5.3-4.3-9.5-9.5-9.5H68.7c-5.3,0-9.5,4.3-9.5,9.5
		v0.8c-20,3.2-34.7,20.5-34.7,40.8v219.1v0c0,16.8,13.6,30.5,30.5,30.5c0,0,0,0,0,0h207.8c2.1,0,3.8-1.7,3.8-3.9v-26.6
		c0-2.1-1.7-3.8-3.8-3.8c-2.1,0-3.8,1.7-3.8,3.8v22.3c-12.3-2.8-20-15.1-17.1-27.4c2.3-10,10.9-17.2,21.1-17.7
		c1.1-0.1,2.1-0.6,2.8-1.4c0,0,0-0.1,0.1-0.1c0.1-0.1,0.2-0.3,0.3-0.4c0-0.1,0.1-0.1,0.1-0.2c0.1-0.1,0.1-0.3,0.2-0.4
		c0-0.1,0.1-0.2,0.1-0.3c0-0.1,0.1-0.2,0.1-0.3c0-0.2,0-0.3,0-0.5c0-0.1,0-0.1,0-0.2l0,0V167.9C312.1,166.8,348.6,129.6,348.6,84z
		 M264.6,7.7C306.8,7.7,341,41.8,341,84s-34.2,76.3-76.3,76.3s-76.3-34.2-76.3-76.3l0,0C188.4,41.8,222.5,7.7,264.6,7.7z M66.8,81.8
		c0-1,0.8-1.9,1.9-1.9h23.5c1,0,1.9,0.8,1.9,1.9l0,46.8l-5.3-7.1c-1.8-2.4-4.7-3.9-7.7-3.9c-0.1,0-0.1,0-0.2,0c-3,0-5.8,1.3-7.7,3.7
		l-6.4,7.9V81.8z M233.5,342.5c0,8.1,3.2,15.9,8.9,21.6l0,0c0.4,0.4,0.9,0.9,1.4,1.3H54.9c-10.5,0-19.6-7.1-22.2-17.2h140
		c2.1,0,3.8-1.7,3.8-3.8c0-2.1-1.7-3.8-3.8-3.8H32.1c1.1-11.8,10.9-20.8,22.7-20.8h188.9C237.3,325.5,233.5,333.8,233.5,342.5z
		 M54.9,312c-8.7,0-17.1,3.8-22.8,10.3l0,0v-199c0-16,11.3-29.8,27.1-33v39.2c0,3.2,2,6.1,5,7.1c0.8,0.3,1.7,0.4,2.5,0.4
		c2.3,0,4.4-1,5.8-2.8l6.6-8.2c0.4-0.5,1.1-0.8,1.7-0.8c0.7,0,1.3,0.3,1.7,0.9l5.6,7.4c2.5,3.3,7.2,4,10.6,1.5c1.9-1.4,3-3.7,3-6
		V89.7h79.2c2.9,41.8,36.2,75.1,78,78V312l0,0L54.9,312z"/>
	<path d="M265.4,39.8c-3.2-1.5-7-0.8-9.6,1.6l-21.2,19.5c-0.7,0.7-1.7,1.1-2.7,1.1h-11.6c-5.4,0-9.8,4.4-9.8,9.8v31.1
		c0,5.4,4.4,9.8,9.8,9.8h11.9c0.9,0,1.8,0.3,2.5,0.9l21.6,17.1c3.9,3.1,9.5,2.4,12.5-1.4c1.3-1.6,1.9-3.5,1.9-5.6V48
		C270.7,44.4,268.6,41.2,265.4,39.8z M263,123.8c0,0.7-0.6,1.3-1.3,1.3c-0.3,0-0.6-0.1-0.8-0.3l-21.6-17.1c-2.1-1.6-4.6-2.5-7.3-2.5
		h-11.9c-1.2,0-2.2-1-2.2-2.2V71.8c0-1.2,1-2.2,2.2-2.2H231v12.4c0,2.1,1.7,3.8,3.8,3.8s3.8-1.7,3.8-3.8V67.4c0.4-0.3,0.7-0.5,1-0.8
		L260.9,47c0.5-0.5,1.3-0.4,1.8,0.1c0.2,0.2,0.3,0.5,0.3,0.9V123.8z"/>
	<path d="M306.1,84c0-11.1-9-20-20-20c-2.1,0-3.8,1.7-3.8,3.8c0,2.1,1.7,3.8,3.8,3.8c6.8,0,12.4,5.5,12.4,12.3
		c0,6.8-5.5,12.4-12.3,12.4c0,0,0,0-0.1,0c-2.1,0-3.8,1.7-3.8,3.8c0,2.1,1.7,3.8,3.8,3.8C297.1,104,306.1,95,306.1,84z"/>
	<path d="M288.5,49.1c-2.1,0-3.8,1.7-3.8,3.8c0,2.1,1.7,3.8,3.8,3.8c15,0,27.2,12.2,27.1,27.2c0,15-12.2,27.1-27.1,27.1
		c-2.1,0-3.8,1.7-3.8,3.8c0,2.1,1.7,3.8,3.8,3.8c19.2,0,34.8-15.6,34.8-34.9C323.3,64.7,307.7,49.2,288.5,49.1z"/>
</g>
</svg>
