<?xml version="1.0" ?><svg viewBox="0 0 22.079 22.079" xmlns="http://www.w3.org/2000/svg"><g data-name="Layer 2" id="Layer_2"><g data-name="Layer 1" id="Layer_1-2"><path d="M22.044,18.918l-1.749-3.5V3.457a1.228,1.228,0,0,0-1.227-1.226H17.619V.335A.336.336,0,0,0,17.284,0h-4.12A2.458,2.458,0,0,0,11.04,1.227,2.461,2.461,0,0,0,8.915,0H4.8a.335.335,0,0,0-.334.335v1.9H3.011A1.228,1.228,0,0,0,1.784,3.457V15.421l-1.749,3.5A.342.342,0,0,0,0,19.069v1.784a1.228,1.228,0,0,0,1.227,1.226H20.853a1.227,1.227,0,0,0,1.226-1.226V19.069A.342.342,0,0,0,22.044,18.918Zm-4.425-5.951V2.9h1.449a.558.558,0,0,1,.558.557V15.165H11.374a1.8,1.8,0,0,1,1.79-1.864h4.12A.335.335,0,0,0,17.619,12.967ZM11.04,3.81a3.457,3.457,0,0,1,0,6.914A3.457,3.457,0,0,1,11.04,3.81ZM13.164.669h3.785V12.632H13.164a2.451,2.451,0,0,0-1.79.775V11.376a4.125,4.125,0,0,0,0-8.218v-.7A1.792,1.792,0,0,1,13.164.669ZM5.13.669H8.915a1.792,1.792,0,0,1,1.79,1.79v.7a4.125,4.125,0,0,0,0,8.218v2.031a2.457,2.457,0,0,0-1.79-.775H5.13ZM2.453,3.457A.558.558,0,0,1,3.011,2.9h1.45V12.967A.334.334,0,0,0,4.8,13.3h4.12a1.8,1.8,0,0,1,1.79,1.864H2.453ZM2.325,15.834H19.754l1.449,2.9H.876ZM21.41,20.853a.558.558,0,0,1-.557.557H1.227a.558.558,0,0,1-.558-.557V19.4H21.41Zm-11.263-.781h1.785a.335.335,0,0,1,0,.669H10.147A.335.335,0,0,1,10.147,20.072ZM9.93,9.722a.336.336,0,0,0,.35-.031l2.9-2.155a.336.336,0,0,0,0-.537l-2.9-2.156a.335.335,0,0,0-.534.268V9.422A.336.336,0,0,0,9.93,9.722Zm.485-3.945,2,1.49-2,1.49Z" data-name="video tutorials" id="video_tutorials"/></g></g></svg>