<?xml version="1.0" ?><svg viewBox="0 0 512 512" xmlns="http://www.w3.org/2000/svg"><g id="E-learning_certificate"><path d="M115.4081,312.8552a4.5,4.5,0,0,0,4.5,4.5H351.1522a4.5,4.5,0,0,0,0-9H119.9081A4.5,4.5,0,0,0,115.4081,312.8552Z"/><path d="M351.1522,342.4079a4.5,4.5,0,0,0,0-9h-39.21a4.5,4.5,0,0,0,0,9Z"/><path d="M294.1835,337.9079a4.5,4.5,0,0,0-4.5-4.5H119.9081a4.5,4.5,0,1,0,0,9H289.6835A4.5,4.5,0,0,0,294.1835,337.9079Z"/><path d="M322.8241,383.407l-11.7271-.0479a12.7165,12.7165,0,0,0-8.9658,3.7158c-7.7368,7.8213-12.6518,10.1055-14.1455,10.0518a19.9154,19.9154,0,0,1,1.814-4.6c1.5469-3.168,3.1465-6.4443,1.3027-9.5986a6.3552,6.3552,0,0,0-5.4912-3.043c-5.0561-.294-10.61,3.9892-16.4766,8.5293-1.2236.9472-2.7451,2.124-4.1484,3.1308.1592-.5019.3193-.99.4614-1.4238,1.792-5.4668,4.792-14.6152-3.1489-18.7949-5.165-2.7178-12.3608.0391-22.6465,8.6767a147.2022,147.2022,0,0,0-12.2012,11.6329,4.5,4.5,0,0,0,6.6236,6.0927c9.4512-10.2666,20.8921-18.9677,24.0874-18.4052,1.1089.749-.3745,5.2734-1.2666,7.9941-1.523,4.6445-3.0977,9.4473-.2066,13.06,1.3194,1.6495,4.4068,3.9219,10.26.6172a70.1025,70.1025,0,0,0,7.6939-5.4638c1.55-1.1992,3.7919-2.9336,5.8593-4.3321-1.6816,4.02-3.0424,9.7032,2.2959,13.3731a8.71,8.71,0,0,0,5.0518,1.541c5.3857,0,12.312-4.25,20.68-12.709a3.6087,3.6087,0,0,1,2.5312-1.0459l11.7266.0479h.019a4.5,4.5,0,0,0,.0181-9Z"/><path d="M351.5448,383.7185H338.3573a4.5,4.5,0,0,0,0,9h13.1875a4.5,4.5,0,0,0,0-9Z"/><path d="M168.0106,275.9724h85.44a4.5,4.5,0,0,0,0-9h-85.44a4.55,4.55,0,0,1-4.5449-4.5449V212.7956a4.55,4.55,0,0,1,4.5449-4.5449H293.515a4.55,4.55,0,0,1,4.5449,4.5449v49.6319a4.55,4.55,0,0,1-4.5449,4.5449H276.7845a4.5,4.5,0,0,0,0,9H293.515A13.56,13.56,0,0,0,307.06,262.4275V212.7956a13.56,13.56,0,0,0-13.5449-13.5449H168.0106a13.56,13.56,0,0,0-13.5449,13.5449v49.6319A13.56,13.56,0,0,0,168.0106,275.9724Z"/><path d="M490.2582,135.5046c3.9165-4.3818,8.3559-9.3476,8.3559-15.8476s-4.4394-11.4649-8.3559-15.8467c-2.2573-2.5264-4.5918-5.1377-5.2857-7.2744-.7553-2.3252-.4038-5.9395-.0639-9.4346.5581-5.7383,1.19-12.2422-2.49-17.2988-3.7143-5.1035-10.13-6.5088-15.791-7.7481-3.4009-.7451-6.918-1.5156-8.8462-2.9189-1.8813-1.3692-3.6748-4.4453-5.4092-7.42-2.9389-5.042-6.27-10.7559-12.351-12.73-5.8536-1.9-11.7876.6855-17.0225,2.9687-3.27,1.4258-6.6514,2.9-9.188,2.9s-5.917-1.4746-9.187-2.9c-5.2334-2.2822-11.1665-4.87-17.0229-2.9687C381.52,40.96,378.1888,46.6736,375.25,51.7146c-1.7339,2.9746-3.5274,6.0508-5.4092,7.42-1.9277,1.4033-5.4443,2.1738-8.8452,2.919-5.6611,1.2392-12.0772,2.6445-15.792,7.749-3.68,5.0566-3.0479,11.5605-2.49,17.2978.34,3.4951.6915,7.1094-.0634,9.4346-.6944,2.1367-3.0288,4.749-5.2862,7.2744-3.9165,4.3818-8.3559,9.3486-8.3559,15.8477a14.7178,14.7178,0,0,0,.9375,5.0976H24.2258a10.8485,10.8485,0,0,0-10.84,10.84v327.24a10.8484,10.8484,0,0,0,10.84,10.84h417.21a10.8484,10.8484,0,0,0,10.84-10.84v-210.45h22a7.956,7.956,0,0,0,4.23-14.7c-17.22-10.638-24.7816-32.32-28.02-46.9268.6585-1.0559,1.2822-2.1211,1.887-3.1584,1.7339-2.9747,3.5269-6.0508,5.4087-7.42,1.9278-1.4033,5.4449-2.1738,8.8457-2.9189,5.6612-1.2393,12.0772-2.6445,15.791-7.7481,3.6807-5.0566,3.0484-11.5605,2.4908-17.2978-.34-3.4951-.6914-7.11.0634-9.4356C485.6664,140.6423,488,138.031,490.2582,135.5046Zm-141.3024,102.18a7.8278,7.8278,0,0,0-3.44,8.89,7.91,7.91,0,0,0,7.67,5.81h36.19a4.5019,4.5019,0,0,0,3.39-1.54c.5452-.6331,8.928-10.4519,16.05-29.9v179.13a35.5744,35.5744,0,0,0-30.14,30.13H86.9858a35.5744,35.5744,0,0,0-30.13-30.13v-201.72a35.5745,35.5745,0,0,0,30.13-30.13h257.4a13.4579,13.4579,0,0,0,.8174,1.2869c3.7148,5.1045,10.1309,6.51,15.792,7.749,3.4009.7451,6.9175,1.5156,8.8457,2.9189,1.8813,1.3692,3.6748,4.4453,5.4087,7.42.5725.9821,1.1609,1.9895,1.7805,2.99C373.8208,205.1911,366.2787,226.9756,348.9558,237.6846Zm33.99-34.29c.4979-1.5835.9417-3.1311,1.3529-4.647a14.0854,14.0854,0,0,0,3.3018,1.582c5.8559,1.9024,11.789-.6865,17.0234-2.9687q.8366-.3648,1.6775-.7239c-5.4641,26.4822-15.6541,42.0359-19.1255,46.7473h-30.56C368.2358,235.0547,377.2958,221.3047,382.9458,203.3948Zm59.33,259.44a.8384.8384,0,0,1-.84.84H24.2258a.8447.8447,0,0,1-.84-.84v-327.24a.8448.8448,0,0,1,.84-.84H336.6951q.336.3776.669.75c2.2574,2.5254,4.5918,5.1377,5.2862,7.2744.7544,2.3252.4033,5.94.0634,9.4346-.1892,1.9443-.3828,3.9768-.4182,6.011H82.3358a5.0018,5.0018,0,0,0-5,5,25.5084,25.5084,0,0,1-25.48,25.48,5.0018,5.0018,0,0,0-5,5v211.02a5.0018,5.0018,0,0,0,5,5,25.5084,25.5084,0,0,1,25.48,25.48,5.0018,5.0018,0,0,0,5,5h300.99a5.0018,5.0018,0,0,0,5-5,25.5106,25.5106,0,0,1,25.49-25.48,5.0018,5.0018,0,0,0,5-5V221.3811c7.0846,19.1577,15.3411,28.835,15.89,29.4634a4.4869,4.4869,0,0,0,3.39,1.54h4.18Zm28.58-219.45h-30.57c-3.4825-4.7256-13.688-20.3013-19.1394-46.8213.6173.262,1.2363.5293,1.852.7979,3.9605,1.7275,8.3193,3.6279,12.7432,3.6279a13.7516,13.7516,0,0,0,4.2793-.6592,14.0789,14.0789,0,0,0,3.1736-1.4946c.4068,1.4868.8441,3.0044,1.3313,4.56C450.1658,221.3047,459.2258,235.0547,470.8558,243.3845Zm11.9463-114.5439c-2.9477,3.2978-5.9961,6.7089-7.3408,10.8505-1.3989,4.3067-.9448,8.9756-.5059,13.4913.4043,4.1591.8223,8.46-.623,10.4453-1.4785,2.0322-5.7319,2.9638-9.8447,3.8642-4.4087.9659-8.9673,1.9639-12.5913,4.6016-3.5787,2.6045-5.9092,6.6025-8.1631,10.47-2.1382,3.667-4.3487,7.459-6.8,8.2549-2.2529.7305-6.1572-.9746-9.937-2.623-4.21-1.836-8.563-3.7344-13.1851-3.7344s-8.9746,1.8984-13.1846,3.7344c-3.78,1.6484-7.6894,3.3535-9.9379,2.623-2.4512-.7959-4.6617-4.5879-6.8-8.2549-2.2539-3.8662-4.5844-7.8652-8.1635-10.47-3.624-2.6367-8.1822-3.6357-12.59-4.6006-4.1132-.9014-8.3667-1.833-9.8457-3.8662-1.4453-1.9854-1.0268-6.2861-.6225-10.4453.4394-4.5147.893-9.1836-.5054-13.49-1.3447-4.1416-4.3931-7.5527-7.3413-10.8505-2.8569-3.1973-5.8115-6.502-5.8115-9.1836s2.9546-5.9864,5.8115-9.1836c2.9482-3.2979,5.9966-6.709,7.3413-10.8506,1.3984-4.3067.9448-8.9756.5059-13.49-.4043-4.1592-.8228-8.46.6225-10.4454,1.479-2.0332,5.7325-2.9648,9.8457-3.8662,4.4082-.9648,8.9663-1.9638,12.59-4.6006,3.58-2.6044,5.91-6.6025,8.164-10.4687,2.1377-3.667,4.3482-7.459,6.8-8.2549a3.9612,3.9612,0,0,1,1.229-.1738c2.2945,0,5.5469,1.418,8.7085,2.7969,4.21,1.8359,8.563,3.7343,13.1846,3.7343s8.9751-1.8984,13.1851-3.7343c3.7807-1.6485,7.6909-3.3545,9.9375-2.6231,2.4516.7959,4.6621,4.5879,6.8,8.2549,2.2544,3.8662,4.5849,7.8652,8.164,10.47,3.6241,2.6377,8.1827,3.6358,12.5909,4.6016,4.1132.9,8.3662,1.832,9.8452,3.8642,1.4448,1.9854,1.0268,6.2862.6225,10.4454-.4394,4.5156-.893,9.1845.5054,13.4912,1.3447,4.1416,4.3931,7.5527,7.3413,10.8506,2.8569,3.1962,5.8115,6.5019,5.8115,9.1826S485.66,125.6443,482.8021,128.8406Z"/><path d="M414.744,69.2331a50.4325,50.4325,0,0,0-37.248,85.42A50.584,50.584,0,0,0,413.8329,170.09c.3989,0,.7993-.0049,1.1987-.0137a5,5,0,0,0-.2392-9.998,40.4326,40.4326,0,0,1-29.0376-69.5352A40.4405,40.4405,0,0,1,450.78,136.0613a5,5,0,0,0,9.1425,4.0527A50.445,50.445,0,0,0,414.744,69.2331Z"/><path d="M441.8671,148.7712a40.2409,40.2409,0,0,1-12.6626,8.2871,5,5,0,1,0,3.8027,9.2481,50.185,50.185,0,0,0,15.7993-10.334,5,5,0,0,0-6.9394-7.2012Z"/><path d="M432.5946,132.8806l-2.47-7.6006,6.4653-4.6972a8.0051,8.0051,0,0,0-4.7046-14.4815h-7.9922l-2.4692-7.6006a8.0052,8.0052,0,0,0-15.2261,0l-2.4692,7.6006h-7.9922a8.0052,8.0052,0,0,0-4.7051,14.4815l6.4653,4.6972-2.4692,7.6006a8.0012,8.0012,0,0,0,12.3179,8.9492l6.4653-4.6972,6.4653,4.6972a8.0049,8.0049,0,0,0,12.3184-8.9492Zm-8.3447-14.457a7.9851,7.9851,0,0,0-2.9082,8.9492l1.7466,5.375-4.5718-3.32a7.9848,7.9848,0,0,0-9.4107-.001l-4.5717,3.3213,1.7456-5.374a7.9849,7.9849,0,0,0-2.9073-8.95l-4.5732-3.3223h5.6523a7.9861,7.9861,0,0,0,7.6133-5.53l1.7461-5.3759,1.7471,5.3769a7.9853,7.9853,0,0,0,7.6123,5.5293h5.6528Z"/></g></svg>