<?xml version="1.0" encoding="utf-8"?>
<!-- Generator: Adobe Illustrator 21.1.0, SVG Export Plug-In . SVG Version: 6.00 Build 0)  -->
<svg version="1.1" id="Layer_1" xmlns="http://www.w3.org/2000/svg" xmlns:xlink="http://www.w3.org/1999/xlink" x="0px" y="0px"
	 viewBox="0 0 417 373" style="enable-background:new 0 0 417 373;" xml:space="preserve">
<g id="E-learning_certificate">
	<path d="M90,236.5c0,2.1,1.7,3.8,3.8,3.8h196.3c2.1,0,3.8-1.7,3.8-3.8s-1.7-3.8-3.8-3.8H93.8C91.7,232.7,90,234.4,90,236.5z"/>
	<path d="M290.1,261.6c2.1,0,3.8-1.7,3.8-3.8c0-2.1-1.7-3.8-3.8-3.8h-33.3c-2.1,0-3.8,1.7-3.8,3.8s1.7,3.8,3.8,3.8H290.1z"/>
	<path d="M241.7,257.8c0-2.1-1.7-3.8-3.8-3.8H93.8c-2.1,0-3.8,1.7-3.8,3.8s1.7,3.8,3.8,3.8h144.1C240,261.6,241.7,259.9,241.7,257.8
		z"/>
	<path d="M266,296.4h-10c-2.9,0-5.6,1.1-7.6,3.2c-6.6,6.6-10.7,8.6-12,8.5c0.3-1.4,0.9-2.7,1.5-3.9c1.3-2.7,2.7-5.5,1.1-8.1
		c-1-1.6-2.8-2.6-4.7-2.6c-4.3-0.2-9,3.4-14,7.2c-1,0.8-2.3,1.8-3.5,2.7c0.1-0.4,0.3-0.8,0.4-1.2c1.5-4.6,4.1-12.4-2.7-16
		c-4.4-2.3-10.5,0-19.2,7.4c-3.6,3.1-7.1,6.4-10.4,9.9c-1.4,1.6-1.3,4,0.3,5.4c1.5,1.4,3.9,1.3,5.3-0.2c8-8.7,17.7-16.1,20.4-15.6
		c0.9,0.6-0.3,4.5-1.1,6.8c-1.3,3.9-2.6,8-0.2,11.1c1.1,1.4,3.7,3.3,8.7,0.5c2.3-1.4,4.5-2.9,6.5-4.6c1.3-1,3.2-2.5,5-3.7
		c-1.4,3.4-2.6,8.2,1.9,11.4c1.3,0.9,2.8,1.3,4.3,1.3c4.6,0,10.5-3.6,17.6-10.8c0.6-0.6,1.3-0.9,2.1-0.9h10l0,0
		c2.1,0,3.8-1.7,3.8-3.8C269.8,298.1,268.1,296.4,266,296.4L266,296.4z"/>
	<path d="M290.4,296.6h-11.2c-2.1,0-3.8,1.7-3.8,3.8c0,2.1,1.7,3.8,3.8,3.8h11.2c2.1,0,3.8-1.7,3.8-3.8
		C294.2,298.4,292.5,296.6,290.4,296.6z"/>
	<path d="M134.6,205.2h72.5c2.1,0,3.8-1.7,3.8-3.8s-1.7-3.8-3.8-3.8h-72.5c-2.1,0-3.9-1.7-3.9-3.9v-42.1c0-2.1,1.7-3.9,3.9-3.9
		h106.5c2.1,0,3.9,1.7,3.9,3.9v42.1c0,2.1-1.7,3.9-3.9,3.9h-14.2c-2.1,0-3.8,1.7-3.8,3.8s1.7,3.8,3.8,3.8h14.2
		c6.3,0,11.5-5.2,11.5-11.5v-42.1c0-6.3-5.2-11.5-11.5-11.5H134.6c-6.3,0-11.5,5.2-11.5,11.5v42.1
		C123.1,200,128.3,205.2,134.6,205.2z"/>
	<path d="M408.1,86c3.3-3.7,7.1-7.9,7.1-13.5s-3.8-9.7-7.1-13.5c-1.9-2.1-3.9-4.4-4.5-6.2c-0.6-2-0.3-5-0.1-8
		c0.5-4.9,1-10.4-2.1-14.7c-3.2-4.3-8.6-5.5-13.4-6.6c-2.9-0.6-5.9-1.3-7.5-2.5c-1.6-1.2-3.1-3.8-4.6-6.3
		c-2.5-4.3-5.3-9.1-10.5-10.8c-5-1.6-10,0.6-14.4,2.5c-2.8,1.2-5.6,2.5-7.8,2.5c-2.2,0-5-1.3-7.8-2.5c-4.4-1.9-9.5-4.1-14.4-2.5
		c-5.2,1.7-8,6.5-10.5,10.8c-1.5,2.5-3,5.1-4.6,6.3c-1.6,1.2-4.6,1.8-7.5,2.5c-4.8,1.1-10.3,2.2-13.4,6.6c-3.1,4.3-2.6,9.8-2.1,14.7
		c0.3,3,0.6,6-0.1,8c-0.6,1.8-2.6,4-4.5,6.2c-3.3,3.7-7.1,7.9-7.1,13.5c0,1.5,0.3,2.9,0.8,4.3H12.6c-5.1,0-9.2,4.1-9.2,9.2v277.8
		c0,5.1,4.1,9.2,9.2,9.2h354.1c5.1,0,9.2-4.1,9.2-9.2V185.2h18.7c3.7,0,6.8-3,6.8-6.7c0-2.3-1.2-4.5-3.2-5.7
		c-14.6-9-21-27.4-23.8-39.8c0.6-0.9,1.1-1.8,1.6-2.7c1.5-2.5,3-5.1,4.6-6.3c1.6-1.2,4.6-1.8,7.5-2.5c4.8-1.1,10.3-2.2,13.4-6.6
		c3.1-4.3,2.6-9.8,2.1-14.7c-0.3-3-0.6-6,0.1-8C404.2,90.3,406.2,88.1,408.1,86z M288.2,172.7c-2.6,1.6-3.8,4.7-2.9,7.5
		c0.8,2.9,3.5,4.9,6.5,4.9h30.7c1.1,0,2.2-0.5,2.9-1.3c0.5-0.5,7.6-8.9,13.6-25.4v152c-13.3,1.9-23.7,12.3-25.6,25.6H65.8
		c-1.9-13.3-12.3-23.7-25.6-25.6V139.3c13.3-1.9,23.7-12.3,25.6-25.6h218.5c0.2,0.4,0.4,0.7,0.7,1.1c3.2,4.3,8.6,5.5,13.4,6.6
		c2.9,0.6,5.9,1.3,7.5,2.5c1.6,1.2,3.1,3.8,4.6,6.3c0.5,0.8,1,1.7,1.5,2.5C309.3,145.1,302.9,163.6,288.2,172.7z M317.1,143.6
		c0.4-1.3,0.8-2.7,1.1-3.9c0.9,0.6,1.8,1,2.8,1.3c5,1.6,10-0.6,14.4-2.5c0.5-0.2,0.9-0.4,1.4-0.6c-4.6,22.5-13.3,35.7-16.2,39.7
		h-25.9C304.6,170.5,312.3,158.8,317.1,143.6L317.1,143.6z M367.4,363.8c0,0.4-0.3,0.7-0.7,0.7l0,0H12.6c-0.4,0-0.7-0.3-0.7-0.7V86
		c0-0.4,0.3-0.7,0.7-0.7h265.2c0.2,0.2,0.4,0.4,0.6,0.6c1.9,2.1,3.9,4.4,4.5,6.2c0.6,2,0.3,5,0.1,8c-0.2,1.7-0.3,3.4-0.4,5.1H61.9
		c-2.3,0-4.2,1.9-4.2,4.2c0,11.9-9.7,21.6-21.6,21.6c-2.3,0-4.2,1.9-4.2,4.2v179.1c0,2.3,1.9,4.2,4.2,4.2c11.9,0,21.6,9.7,21.6,21.6
		c0,2.3,1.9,4.2,4.2,4.2h255.5c2.3,0,4.2-1.9,4.2-4.2c0-11.9,9.7-21.6,21.6-21.6c2.3,0,4.2-1.9,4.2-4.2V158.9
		c6,16.3,13,24.5,13.5,25c0.7,0.8,1.8,1.3,2.9,1.3h3.5L367.4,363.8L367.4,363.8z M391.7,177.5h-25.9c-3-4-11.6-17.2-16.2-39.7
		c0.5,0.2,1,0.4,1.6,0.7c3.4,1.5,7.1,3.1,10.8,3.1c1.2,0,2.5-0.2,3.6-0.6c0.9-0.3,1.9-0.7,2.7-1.3c0.3,1.3,0.7,2.6,1.1,3.9
		C374.1,158.8,381.8,170.5,391.7,177.5L391.7,177.5z M401.8,80.3c-2.5,2.8-5.1,5.7-6.2,9.2c-1.2,3.7-0.8,7.6-0.4,11.5
		c0.3,3.5,0.7,7.2-0.5,8.9c-1.3,1.7-4.9,2.5-8.4,3.3c-3.7,0.8-7.6,1.7-10.7,3.9c-3,2.2-5,5.6-6.9,8.9c-1.8,3.1-3.7,6.3-5.8,7
		c-1.9,0.6-5.2-0.8-8.4-2.2c-3.6-1.6-7.3-3.2-11.2-3.2c-3.9,0-7.6,1.6-11.2,3.2c-3.2,1.4-6.5,2.8-8.4,2.2c-2.1-0.7-4-3.9-5.8-7
		c-1.9-3.3-3.9-6.7-6.9-8.9c-3.1-2.2-6.9-3.1-10.7-3.9c-3.5-0.8-7.1-1.6-8.4-3.3c-1.2-1.7-0.9-5.3-0.5-8.9c0.4-3.8,0.8-7.8-0.4-11.5
		c-1.1-3.5-3.7-6.4-6.2-9.2c-2.4-2.7-4.9-5.5-4.9-7.8s2.5-5.1,4.9-7.8c2.5-2.8,5.1-5.7,6.2-9.2c1.2-3.7,0.8-7.6,0.4-11.5
		c-0.3-3.5-0.7-7.2,0.5-8.9c1.3-1.7,4.9-2.5,8.4-3.3c3.7-0.8,7.6-1.7,10.7-3.9c3-2.2,5-5.6,6.9-8.9c1.8-3.1,3.7-6.3,5.8-7
		c0.3-0.1,0.7-0.2,1-0.1c1.9,0,4.7,1.2,7.4,2.4c3.6,1.6,7.3,3.2,11.2,3.2s7.6-1.6,11.2-3.2c3.2-1.4,6.5-2.8,8.4-2.2
		c2.1,0.7,4,3.9,5.8,7c1.9,3.3,3.9,6.7,6.9,8.9c3.1,2.2,6.9,3.1,10.7,3.9c3.5,0.8,7.1,1.6,8.4,3.3c1.2,1.7,0.9,5.3,0.5,8.9
		c-0.4,3.8-0.8,7.8,0.4,11.5c1.1,3.5,3.7,6.4,6.2,9.2c2.4,2.7,4.9,5.5,4.9,7.8S404.2,77.6,401.8,80.3L401.8,80.3z"/>
	<path d="M344,29.7c-23.6-0.4-43.2,18.4-43.6,42c-0.2,11.4,4.1,22.3,12,30.5c8.1,8.4,19.2,13.1,30.8,13.1c0.3,0,0.7,0,1,0
		c2.3-0.1,4.2-2,4.1-4.3c-0.1-2.3-2-4.2-4.3-4.1l0,0c-18.9,0.5-34.7-14.5-35.1-33.5c-0.2-9.6,3.6-18.9,10.5-25.5
		c13.7-13.2,35.4-12.7,48.5,0.9c9.7,10.1,12.3,25,6.7,37.7c-0.9,2.1,0,4.7,2.2,5.6s4.7,0,5.6-2.2c9.6-21.6-0.2-46.9-21.8-56.5
		C355.4,31.1,349.8,29.8,344,29.7z"/>
	<path d="M367.1,97.2c-3.1,3-6.8,5.4-10.7,7c-2.2,0.9-3.2,3.3-2.4,5.5c0.9,2.2,3.3,3.2,5.5,2.4h0.1c5-2,9.5-5,13.4-8.8
		c1.7-1.6,1.7-4.3,0.1-6C371.4,95.6,368.8,95.6,367.1,97.2z"/>
	<path d="M359.2,83.7l-2.1-6.5l5.5-4c3-2.2,3.7-6.5,1.5-9.5c-1.3-1.7-3.3-2.7-5.5-2.7h-6.8l-2.1-6.5c-1.2-3.6-5-5.5-8.6-4.4
		c-2.1,0.7-3.7,2.3-4.4,4.4l-2.1,6.5h-6.8c-3.8,0-6.8,3-6.8,6.8c0,2.2,1,4.2,2.8,5.5l5.5,4l-2.1,6.5c-1.2,3.6,0.8,7.4,4.3,8.6
		c2.1,0.7,4.3,0.3,6.1-1l5.5-4l5.5,4c3,2.2,7.3,1.5,9.5-1.5C359.5,88.1,359.9,85.8,359.2,83.7L359.2,83.7z M352.1,71.5
		c-2.4,1.7-3.4,4.8-2.5,7.6l1.5,4.6l-3.9-2.8c-2.4-1.7-5.6-1.7-8,0l-3.9,2.8l1.5-4.6c0.9-2.8-0.1-5.9-2.5-7.6l-3.9-2.8h4.8
		c2.9,0,5.6-1.9,6.5-4.7l1.5-4.6l1.5,4.6c0.9,2.8,3.5,4.7,6.5,4.7h4.8L352.1,71.5z"/>
</g>
</svg>
