<?xml version="1.0" encoding="utf-8"?>
<!-- Generator: Adobe Illustrator 21.1.0, SVG Export Plug-In . SVG Version: 6.00 Build 0)  -->
<svg version="1.1" id="Layer_1" xmlns="http://www.w3.org/2000/svg" xmlns:xlink="http://www.w3.org/1999/xlink" x="0px" y="0px"
	 viewBox="0 0 373 373" style="enable-background:new 0 0 373 373;" xml:space="preserve">
<g id="E-learning_on_computer">
	<path d="M186.5,265.6c-7.1,0-12.8,5.7-12.8,12.8c0,7.1,5.7,12.8,12.8,12.8s12.8-5.7,12.8-12.8C199.3,271.3,193.6,265.6,186.5,265.6
		z M186.5,283.5c-2.8,0-5.1-2.3-5.1-5.1c0-2.8,2.3-5.1,5.1-5.1s5.1,2.3,5.1,5.1S189.3,283.5,186.5,283.5z"/>
	<path d="M346.3,62.9H319V43.3c0-7.5-5.6-13.7-12.9-14.7c-2.2-0.3-4.7-0.6-7.4-0.9v-1.3c0-5-3.6-9.2-8.5-10
		c-11.1-1.9-22.4-2.8-33.7-2.6V9.4c0-5.2-4.2-9.4-9.4-9.4h-17.3c-14.1,0-25.5,11.4-25.5,25.5v1.3l0,0c-5.2,3.3-9.8,7.4-13.6,12.2
		c-1.4,1.8-3.6,2.9-5.9,2.9c-1.1,0-2.2-0.3-3.2-0.7c-1-0.5-1.9-1.2-2.6-2.1c-11.1-13.9-29-22.2-53.2-24.6
		c-19.1-1.9-37.2,0.4-46.2,1.9c-4.9,0.8-8.5,5.1-8.5,10v1.3c-2.8,0.3-5.3,0.6-7.4,0.9c-7.4,1-12.9,7.3-12.9,14.7v19.6H26.7
		C13.4,62.9,2.6,73.7,2.6,87v197c0,13.3,10.8,24.1,24.1,24.1h131l-7.8,57.4h-18.6c-2.1,0-3.8,1.7-3.8,3.8s1.7,3.8,3.8,3.8h112.1
		c2.1,0,3.8-1.7,3.8-3.8s-1.7-3.8-3.8-3.8h-18.6l-7.8-57.4h129.5c13.3,0,24.1-10.8,24.1-24.1V87C370.4,73.7,359.6,62.9,346.3,62.9z
		 M78.6,26.4c0-1.2,0.9-2.3,2.1-2.5c15.8-2.7,69.1-9.1,92.2,19.9c2,2.6,4.9,4.4,8,5.2v110.1c0,2.1,1.7,3.8,3.8,3.8s3.8-1.7,3.8-3.8
		l0,0V49c3.2-0.8,6-2.7,8-5.2c2.3-2.8,4.8-5.4,7.7-7.6l0,0v26.5c0,3.3,2.1,6.2,5.3,7.1c0.7,0.2,1.4,0.3,2.2,0.3
		c2.5,0,4.8-1.2,6.1-3.3l4.7-7.1l4.7,7.1c2.3,3.4,6.9,4.3,10.3,2.1c2.1-1.4,3.3-3.7,3.3-6.2V44.1c0-2.1-1.7-3.8-3.8-3.8
		s-3.8,1.7-3.8,3.8v17.8l-7.5-11.3c-1.2-1.8-3.5-2.2-5.3-1.1c-0.4,0.3-0.8,0.6-1.1,1.1L212,61.9V25.5c0-0.1,0-0.1,0-0.2
		c0-0.4,0-0.7,0-1.1c0-0.1,0-0.3,0-0.4c0-0.4,0.1-0.9,0.2-1.3c1.5-8.6,8.9-14.9,17.6-14.9h17.3c1,0,1.7,0.8,1.7,1.7V14l0,0
		c-1.6,0.1-3.3,0.2-4.9,0.4c-1,0.1-2,0.2-3,0.3c-2.6,0.3-5.2,0.7-7.6,1.2v7.8l0,0v6.9c0,2.1,1.7,3.8,3.8,3.8s3.8-1.7,3.8-3.8v-8.1
		c19.8-2.6,39.4,0,47.9,1.4c1.2,0.2,2.1,1.3,2.1,2.5v134.1c0,0.7-0.3,1.4-0.8,1.9s-1.3,0.7-2,0.7c-56.6-5-86,12.4-98.5,23.3
		c-0.3,0.3-0.7,0.5-1.1,0.8v-14c0-2.1-1.7-3.8-3.8-3.8s-3.8,1.7-3.8,3.8v14c-0.4-0.2-0.7-0.5-1.1-0.8c-11-9.5-35-24.2-79-24.2
		c-6.1,0-12.6,0.3-19.5,0.9c-1.4,0.1-2.7-0.9-2.8-2.3c0-0.1,0-0.2,0-0.2L78.6,26.4z M58.3,43.3c0-3.6,2.7-6.7,6.3-7.1
		c1.9-0.2,4.1-0.5,6.4-0.7v125.1c0,5.6,4.6,10.2,10.2,10.2c0.3,0,0.6,0,0.9,0c53.8-4.8,81.2,11.4,92.8,21.4c5.7,4.9,14.1,4.9,19.8,0
		c11.6-10.1,39-26.2,92.8-21.4c5.6,0.5,10.6-3.6,11.1-9.2c0-0.3,0-0.6,0-0.9V35.4c2.4,0.2,4.5,0.5,6.4,0.7c3.6,0.5,6.3,3.5,6.3,7.1
		v131.1c0,4-3.2,7.2-7.2,7.2c-0.1,0-0.3,0-0.4,0c-56.7-3.7-88.9,10.6-105.8,23.2c-7.7,5.8-18.4,5.8-26.1,0
		c-15.1-11.2-42.3-23.8-88.1-23.8c-5.6,0-11.6,0.2-17.8,0.6c-4,0.3-7.4-2.8-7.6-6.7c0-0.1,0-0.3,0-0.4L58.3,43.3z M10.2,87
		c0-9.1,7.4-16.4,16.4-16.4h23.9v25.5H10.2V87z M217,365.4h-59.5l7.8-57.4h43.8L217,365.4z M362.8,248.6H325c-2.1,0-3.8,1.7-3.8,3.8
		s1.7,3.8,3.8,3.8h37.8v27.7c0,9.1-7.4,16.4-16.4,16.4H26.7c-9.1,0-16.4-7.4-16.4-16.4v-27.7h297.6c2.1,0,3.8-1.7,3.8-3.8
		s-1.7-3.8-3.8-3.8H10.2V103.7h40.4v70.7c0,8.2,6.6,14.8,14.8,14.8c0.3,0,0.6,0,1,0c54.4-3.5,84.9,9.8,100.8,21.7
		c10.4,7.8,24.8,7.8,35.2,0c15.9-11.8,46.4-25.2,100.8-21.7c8.2,0.5,15.2-5.7,15.8-13.8c0-0.3,0-0.6,0-1v-70.7h43.8V248.6z
		 M362.8,96.1H319V70.5h27.3c9.1,0,16.4,7.4,16.4,16.4L362.8,96.1z"/>
	<path d="M213.4,99.6c0.9,0,1.7-0.3,2.4-0.9c0.7-0.6,17.8-14.1,49.9-5.7c2,0.5,4.1-0.7,4.7-2.7c0.5-2-0.7-4.1-2.7-4.7
		c-36.1-9.5-55.9,6.5-56.7,7.2c-1.6,1.3-1.8,3.8-0.5,5.4C211.2,99.1,212.3,99.6,213.4,99.6z"/>
	<path d="M213.4,122.3c0.9,0,1.7-0.3,2.4-0.9c0.7-0.6,17.8-14.1,49.9-5.7c2,0.5,4.1-0.7,4.7-2.7c0.5-2-0.7-4.1-2.7-4.7
		c-36.1-9.5-55.9,6.5-56.7,7.2c-1.6,1.3-1.8,3.8-0.5,5.4C211.2,121.8,212.3,122.4,213.4,122.3z"/>
	<path d="M213.4,145.1c0.9,0,1.7-0.3,2.4-0.9c0.7-0.6,17.8-14.1,49.9-5.7c2,0.5,4.1-0.7,4.7-2.7c0.5-2-0.7-4.1-2.7-4.7
		c-36.1-9.5-55.9,6.5-56.7,7.2c-1.6,1.3-1.8,3.8-0.5,5.4C211.2,144.6,212.3,145.1,213.4,145.1z"/>
	<path d="M98.3,90.4c0.5,2,2.6,3.3,4.7,2.7c32.1-8.4,49.2,5,49.9,5.7c1.6,1.3,4,1.1,5.4-0.5c1.3-1.6,1.1-4-0.5-5.4
		c-0.8-0.7-20.6-16.6-56.7-7.2C99,86.2,97.8,88.3,98.3,90.4L98.3,90.4z"/>
	<path d="M101,108.5c-2,0.5-3.3,2.6-2.7,4.7c0.5,2,2.6,3.3,4.7,2.7c32.1-8.4,49.2,5,49.9,5.7c1.6,1.3,4,1.1,5.4-0.5
		c1.3-1.6,1.1-4-0.5-5.4C157,114.9,137.2,99,101,108.5z"/>
	<path d="M101,131.2c-2,0.5-3.3,2.6-2.7,4.7c0.5,2,2.6,3.3,4.7,2.7l0,0c32.1-8.4,49.2,5,49.9,5.7c1.6,1.3,4,1.1,5.4-0.5
		c1.3-1.6,1.1-4-0.5-5.4C157,137.7,137.2,121.7,101,131.2z"/>
</g>
</svg>
