<svg id="Layer_1" data-name="Layer 1" xmlns="http://www.w3.org/2000/svg" viewBox="0 0 29.3 23.76"><defs><style>.cls-1{fill:#1ca599;}.cls-2{fill:#ff9b00;}</style></defs><title>logo30</title><path class="cls-1" d="M.35,7.09,4.79,5.86l9.9-2.7a1.43,1.43,0,0,1,.71,0L29.07,6.9a1.74,1.74,0,0,1,.58.25c-.63.19-1.25.4-1.89.57a.53.53,0,0,0-.46.61c0,3.28,0,6.56,0,9.83A10.47,10.47,0,0,0,27.64,20c0,.1.07.19.09.29.08.31.25.7-.09.87a1.89,1.89,0,0,1-1.08.1c-.28,0-.4-.34-.33-.66a9.86,9.86,0,0,1,.33-1.65,8.42,8.42,0,0,0,.21-3.16c0-2.38,0-4.76,0-7.13,0-.6,0-.6-.58-.43-3.29,1-6.58,2-9.86,3a4.22,4.22,0,0,1-2.56,0C9.38,9.85,5,8.53.56,7.2ZM21.68,6l0-.09a1,1,0,0,0-.18-.09c-2.06-.64-4.12-1.28-6.19-1.9a1.45,1.45,0,0,0-.76,0q-2,.56-3.92,1.16c-.76.23-1.52.5-2.28.75a.45.45,0,0,0,.36,0l6-1.56a1.14,1.14,0,0,1,.55,0l4,1.06C20.09,5.63,20.88,5.81,21.68,6Z" transform="translate(-0.35 -3.12)"/><path class="cls-1" d="M15.05,17.73l.21-.54a5.41,5.41,0,1,1,4.7,7.4,6.31,6.31,0,0,1-1.65-.37.57.57,0,0,0-.71.18c-.76.78-1.54,1.53-2.3,2.31-.22.23-.35.21-.56,0-.78-.8-1.58-1.58-2.36-2.38a.45.45,0,0,0-.57-.12,5.4,5.4,0,1,1-2.5-10.38,5.41,5.41,0,0,1,5.56,3.59A3.21,3.21,0,0,0,15.05,17.73Zm8.87,1.48a3.63,3.63,0,1,0-7.26,0,3.63,3.63,0,1,0,7.26,0Zm-10.5,0a3.63,3.63,0,1,0-3.65,3.6A3.64,3.64,0,0,0,13.42,19.23ZM15,20.85l-1.35,2.28c.36.34.76.75,1.19,1.14a.3.3,0,0,0,.29,0c.43-.4.84-.82,1.2-1.17Z" transform="translate(-0.35 -3.12)"/><path class="cls-2" d="M6.27,10.18l3.83,1.14c1.15.35,2.31.68,3.45,1.05a4.81,4.81,0,0,0,3,0c2.21-.69,4.44-1.35,6.66-2l.57-.15-.19,3.36A6.65,6.65,0,0,0,19,12.8a6.57,6.57,0,0,0-3.95,2.48C12.64,12.55,9.8,12,6.47,13.53Z" transform="translate(-0.35 -3.12)"/><path class="cls-2" d="M21.53,17.17c-.6.54-.71,1-.39,1.45s.74.52,1.53.18a2.21,2.21,0,0,1-1.18,2.5,2.37,2.37,0,0,1-2.81-3.73A2.29,2.29,0,0,1,21.53,17.17Z" transform="translate(-0.35 -3.12)"/><path class="cls-2" d="M10.81,17.16c-.59.54-.7,1-.39,1.45s.78.55,1.52.18a2.18,2.18,0,0,1-1,2.43,2.37,2.37,0,0,1-3-.49,2.4,2.4,0,0,1,0-3A2.32,2.32,0,0,1,10.81,17.16Z" transform="translate(-0.35 -3.12)"/></svg>